<svg id="lsvg" class="l-svg" viewBox="0 0 237 597" xmlns="http://www.w3.org/2000/svg">

  <!-- 1 — Full body outer silhouette -->
  <path class="lp" d="M 196 18 C 200 26 196 40 188 52 C 179 64 172 74 168 88 C 164 100 166 114 165 128 C 164 142 161 156 158 172 C 155 187 153 204 152 222 C 151 240 153 258 154 276 C 155 294 152 315 149 337 C 147 360 145 384 143 408 C 141 432 139 456 137 482 C 135 506 134 532 137 556 C 139 574 148 591 162 596 C 174 600 184 591 184 579 C 184 567 176 557 163 550 C 150 543 134 542 118 546 C 102 550 88 558 76 569 C 65 579 56 591 44 593 C 33 595 26 585 30 573 C 33 561 44 548 56 534 C 68 520 74 497 78 473 C 82 449 82 425 82 401 C 82 377 82 353 80 329 C 79 307 78 285 76 263 C 74 242 72 222 70 203 C 68 184 66 167 64 151 C 62 135 62 121 62 108 C 62 95 64 83 60 72 C 57 62 49 52 42 43 C 36 35 33 25 38 15 C 43 6 56 4 69 8 C 81 12 94 20 107 24 C 111 25 115 26 118 26 C 122 26 126 25 130 24 C 143 20 157 12 169 8 C 181 4 192 7 196 18 Z"/>

  <!-- 2 — Hair cascade, inner strand -->
  <path class="lp" d="M 130 28 C 138 52 144 84 145 118 C 146 150 142 182 134 210"/>

  <!-- 3 — Hair cascade, outer strand -->
  <path class="lp" d="M 150 30 C 160 56 165 90 164 126 C 163 161 157 196 147 226"/>

  <!-- 4 — Face oval -->
  <path class="lp" d="M 112 28 C 128 28 134 40 134 55 C 134 69 126 79 112 79 C 98 79 92 69 92 55 C 92 40 96 28 112 28 Z"/>

  <!-- 5 — Collarbone accent -->
  <path class="lp" d="M 82 90 C 95 86 106 84 118 84 C 130 84 142 86 155 90"/>

</svg>
